<svg width="18" height="20" viewBox="0 0 18 20" fill="none" xmlns="http://www.w3.org/2000/svg">
<path fill-rule="evenodd" clip-rule="evenodd" d="M11.5801 1.93002H16.7201C17.4312 1.93002 18 2.49887 18 3.20993C18 3.92099 17.4312 4.48984 16.7201 4.48984H1.27991C0.568849 4.48984 0 3.92099 0 3.20993C0 2.49887 0.568849 1.93002 1.27991 1.93002H6.44018V1.27991C6.44018 0.568849 7.00903 0 7.72009 0H10.3002C11.0113 0 11.5801 0.568849 11.5801 1.27991V1.93002ZM3.73754 19.3002C3.06711 19.3002 2.51857 18.8126 2.45763 18.1422L1.2793 5.79004H16.7195L15.5411 18.1422C15.4802 18.7923 14.9317 19.3002 14.2612 19.3002H3.73754Z" fill="white"/>
</svg>
